<?xml version="1.0" encoding="iso-8859-1"?>
<!-- Generator: Adobe Illustrator 19.0.0, SVG Export Plug-In . SVG Version: 6.00 Build 0)  -->
<svg version="1.1" id="Capa_1" xmlns="http://www.w3.org/2000/svg" xmlns:xlink="http://www.w3.org/1999/xlink" x="0px" y="0px"
	 viewBox="0 0 480 480" style="enable-background:new 0 0 480 480;" xml:space="preserve">
<g>
	<g>
		<g>
			<path d="M472,120c4.418,0,8-3.582,8-8V48c0-4.418-3.582-8-8-8H8c-4.418,0-8,3.582-8,8v64c0,4.418,3.582,8,8,8h8v240H8
				c-4.418,0-8,3.582-8,8v64c0,4.418,3.582,8,8,8h464c4.418,0,8-3.582,8-8v-64c0-4.418-3.582-8-8-8h-8V120H472z M344,64
				c0-4.418,3.582-8,8-8h32c4.418,0,8,3.582,8,8v32c0,4.418-3.582,8-8,8h-32c-4.418,0-8-3.582-8-8V64z M448,120v240H32V120H448z
				 M280,64c0-4.418,3.582-8,8-8h32c4.418,0,8,3.582,8,8v32c0,4.418-3.582,8-8,8h-32c-4.418,0-8-3.582-8-8V64z M216,64
				c0-4.418,3.582-8,8-8h32c4.418,0,8,3.582,8,8v32c0,4.418-3.582,8-8,8h-32c-4.418,0-8-3.582-8-8V64z M152,64c0-4.418,3.582-8,8-8
				h32c4.418,0,8,3.582,8,8v32c0,4.418-3.582,8-8,8h-32c-4.418,0-8-3.582-8-8V64z M88,64c0-4.418,3.582-8,8-8h32
				c4.418,0,8,3.582,8,8v32c0,4.418-3.582,8-8,8H96c-4.418,0-8-3.582-8-8V64z M24,64c0-4.418,3.582-8,8-8h32c4.418,0,8,3.582,8,8v32
				c0,4.418-3.582,8-8,8H32c-4.418,0-8-3.582-8-8V64z M72,416c0,4.418-3.582,8-8,8H32c-4.418,0-8-3.582-8-8v-32c0-4.418,3.582-8,8-8
				h32c4.418,0,8,3.582,8,8V416z M136,416c0,4.418-3.582,8-8,8H96c-4.418,0-8-3.582-8-8v-32c0-4.418,3.582-8,8-8h32
				c4.418,0,8,3.582,8,8V416z M200,416c0,4.418-3.582,8-8,8h-32c-4.418,0-8-3.582-8-8v-32c0-4.418,3.582-8,8-8h32
				c4.418,0,8,3.582,8,8V416z M264,416c0,4.418-3.582,8-8,8h-32c-4.418,0-8-3.582-8-8v-32c0-4.418,3.582-8,8-8h32
				c4.418,0,8,3.582,8,8V416z M328,416c0,4.418-3.582,8-8,8h-32c-4.418,0-8-3.582-8-8v-32c0-4.418,3.582-8,8-8h32
				c4.418,0,8,3.582,8,8V416z M392,416c0,4.418-3.582,8-8,8h-32c-4.418,0-8-3.582-8-8v-32c0-4.418,3.582-8,8-8h32
				c4.418,0,8,3.582,8,8V416z M456,416c0,4.418-3.582,8-8,8h-32c-4.418,0-8-3.582-8-8v-32c0-4.418,3.582-8,8-8h32
				c4.418,0,8,3.582,8,8V416z M456,96c0,4.418-3.582,8-8,8h-32c-4.418,0-8-3.582-8-8V64c0-4.418,3.582-8,8-8h32c4.418,0,8,3.582,8,8
				V96z"/>
			<path d="M168,328c1.143,0.003,2.273-0.242,3.312-0.72l176-80c4.021-1.832,5.795-6.576,3.963-10.597
				c-0.8-1.756-2.207-3.163-3.963-3.963l-176-80c-4.022-1.829-8.765-0.052-10.594,3.97C160.245,157.73,160,158.858,160,160v160
				C160,324.418,163.582,328,168,328z M176,172.424L324.664,240L176,307.576V172.424z"/>
		</g>
	</g>
</g>
<g>
</g>
<g>
</g>
<g>
</g>
<g>
</g>
<g>
</g>
<g>
</g>
<g>
</g>
<g>
</g>
<g>
</g>
<g>
</g>
<g>
</g>
<g>
</g>
<g>
</g>
<g>
</g>
<g>
</g>
</svg>
